<svg xmlns="http://www.w3.org/2000/svg" width="17.142" height="17.051" viewBox="0 0 17.142 17.051">
  <g id="_2305594_access_key_password_privacy_security_icon" data-name="2305594_access_key_password_privacy_security_icon" transform="translate(-7.977 -7.791)">
    <path id="Trazado_3254" data-name="Trazado 3254" d="M24.343,13.925a19.153,19.153,0,0,0-5.348-5.368,1.355,1.355,0,0,0-1.568.047,16.071,16.071,0,0,0-4.457,4.877,1.375,1.375,0,0,0-.115,1.1l.752,2.3L9.1,21.4a1.744,1.744,0,0,0-.163,2.323,1.693,1.693,0,0,0,2.506.122L16,19.3l2.317.776a1.355,1.355,0,0,0,1.155-.132,19.224,19.224,0,0,0,4.8-4.4A1.355,1.355,0,0,0,24.343,13.925Z" transform="translate(0 0)" fill="none" stroke="#fff" stroke-linecap="round" stroke-linejoin="round" stroke-width="1"/>
    <circle id="Elipse_2929" data-name="Elipse 2929" cx="1.063" cy="1.063" r="1.063" transform="translate(18.059 13.34) rotate(-45)" fill="none" stroke="#fff" stroke-linecap="round" stroke-linejoin="round" stroke-width="1"/>
    <line id="Línea_232" data-name="Línea 232" y1="4.763" x2="4.76" transform="translate(10.079 17.556)" fill="none" stroke="#fff" stroke-linecap="round" stroke-linejoin="round" stroke-width="1"/>
  </g>
</svg>
