<svg xmlns="http://www.w3.org/2000/svg" width="16" height="15.385" viewBox="0 0 16 15.385">
  <g id="_4177548_ecommerce_shop_transaction_icon" data-name="4177548_ecommerce_shop_transaction_icon" transform="translate(-6 -7)">
    <path id="Trazado_3251" data-name="Trazado 3251" d="M20.154,7H7.846A1.846,1.846,0,0,0,6,8.846V20.538a1.846,1.846,0,0,0,1.846,1.846H20.154A1.846,1.846,0,0,0,22,20.538V8.846A1.846,1.846,0,0,0,20.154,7Zm.615,13.538a.615.615,0,0,1-.615.615H7.846a.615.615,0,0,1-.615-.615V8.846a.615.615,0,0,1,.615-.615H20.154a.615.615,0,0,1,.615.615Z" fill="#404041"/>
    <path id="Trazado_3252" data-name="Trazado 3252" d="M24.923,22.152a.615.615,0,0,0,0-1.231H18.1l.794-.8a.615.615,0,0,0-.868-.868L16.181,21.1a.613.613,0,0,0,.434,1.049Z" transform="translate(-6.923 -8.383)" fill="#404041"/>
    <path id="Trazado_3253" data-name="Trazado 3253" d="M26.923,36H18.615a.615.615,0,1,0,0,1.231h6.822l-.794.8a.615.615,0,1,0,.868.868l1.846-1.846A.613.613,0,0,0,26.923,36Z" transform="translate(-8.308 -20.077)" fill="#404041"/>
  </g>
</svg>
