<svg id="calendar2-week" xmlns="http://www.w3.org/2000/svg" width="20" height="20" viewBox="0 0 20 20">
  <path id="Trazado_3140" data-name="Trazado 3140" d="M4.375,0A.625.625,0,0,1,5,.625V1.25H15V.625a.625.625,0,1,1,1.25,0V1.25H17.5A2.5,2.5,0,0,1,20,3.75V17.5A2.5,2.5,0,0,1,17.5,20H2.5A2.5,2.5,0,0,1,0,17.5V3.75a2.5,2.5,0,0,1,2.5-2.5H3.75V.625A.625.625,0,0,1,4.375,0M2.5,2.5A1.25,1.25,0,0,0,1.25,3.75V17.5A1.25,1.25,0,0,0,2.5,18.75h15a1.25,1.25,0,0,0,1.25-1.25V3.75A1.25,1.25,0,0,0,17.5,2.5Z" fill="#707070"/>
  <path id="Trazado_3141" data-name="Trazado 3141" d="M2.5,4.235A.71.71,0,0,1,3.182,3.5H16.818a.71.71,0,0,1,.682.735V5.706a.71.71,0,0,1-.682.735H3.182A.71.71,0,0,1,2.5,5.706ZM14.091,9.382a.71.71,0,0,1,.682-.735h1.364a.71.71,0,0,1,.682.735v1.471a.71.71,0,0,1-.682.735H14.773a.71.71,0,0,1-.682-.735ZM10,9.382a.71.71,0,0,1,.682-.735h1.364a.71.71,0,0,1,.682.735v1.471a.71.71,0,0,1-.682.735H10.682A.71.71,0,0,1,10,10.853ZM3.182,13.794a.71.71,0,0,1,.682-.735H5.227a.71.71,0,0,1,.682.735v1.471A.71.71,0,0,1,5.227,16H3.864a.71.71,0,0,1-.682-.735Zm4.091,0a.71.71,0,0,1,.682-.735H9.318a.71.71,0,0,1,.682.735v1.471A.71.71,0,0,1,9.318,16H7.955a.71.71,0,0,1-.682-.735Z" fill="#707070"/>
</svg>
