<svg xmlns="http://www.w3.org/2000/svg" width="14.25" height="19" viewBox="0 0 14.25 19">
  <path id="file-earmark-spreadsheet" d="M16.25,16.625V5.344L10.906,0H4.375A2.375,2.375,0,0,0,2,2.375v14.25A2.375,2.375,0,0,0,4.375,19h9.5a2.375,2.375,0,0,0,2.375-2.375M10.906,3.563a1.781,1.781,0,0,0,1.781,1.781h2.375v5.344H3.187V2.375A1.187,1.187,0,0,1,4.375,1.188h6.531ZM3.187,14.25V11.875H5.563V14.25Zm0,1.188H5.563v2.375H4.375a1.187,1.187,0,0,1-1.187-1.187ZM6.75,17.813V15.438h3.562v2.375Zm4.75,0V15.438h3.563v1.187a1.188,1.188,0,0,1-1.188,1.188Zm3.563-3.562H11.5V11.875h3.563Zm-8.312,0V11.875h3.562V14.25Z" transform="translate(-2)" fill="#6f7271"/>
</svg>
