<svg xmlns="http://www.w3.org/2000/svg" width="20" height="20" viewBox="0 0 20 20">
  <path id="search_FILL0_wght400_GRAD0_opsz24" d="M138.444-820l-7-7a6.614,6.614,0,0,1-1.917,1.056,6.769,6.769,0,0,1-2.306.389,6.971,6.971,0,0,1-5.125-2.1,6.971,6.971,0,0,1-2.1-5.125,6.972,6.972,0,0,1,2.1-5.125,6.971,6.971,0,0,1,5.125-2.1,6.971,6.971,0,0,1,5.125,2.1,6.972,6.972,0,0,1,2.1,5.125,6.772,6.772,0,0,1-.389,2.305A6.621,6.621,0,0,1,133-828.556l7,7Zm-11.222-7.778a4.822,4.822,0,0,0,3.542-1.458,4.822,4.822,0,0,0,1.458-3.542,4.822,4.822,0,0,0-1.458-3.542,4.822,4.822,0,0,0-3.542-1.458,4.821,4.821,0,0,0-3.542,1.458,4.822,4.822,0,0,0-1.458,3.542,4.822,4.822,0,0,0,1.458,3.542A4.822,4.822,0,0,0,127.222-827.778Z" transform="translate(-120 840)" fill="#555"/>
</svg>
