<svg xmlns="http://www.w3.org/2000/svg" width="50" height="50" viewBox="0 0 50 50">
  <g id="Grupo_19604" data-name="Grupo 19604" transform="translate(-658 -263)">
    <g id="Grupo_19530" data-name="Grupo 19530" transform="translate(0 -38)">
      <g id="Grupo_19486" data-name="Grupo 19486" transform="translate(-9299 -5955)">
        <rect id="Rectángulo_2397" data-name="Rectángulo 2397" width="50" height="50" rx="25" transform="translate(9957 6256)" fill="#ddd"/>
      </g>
    </g>
    <g id="_9035550_warning_outline_icon" data-name="9035550_warning_outline_icon" transform="translate(615.424 209.25)">
      <path id="Trazado_3287" data-name="Trazado 3287" d="M55.788,92.066H79.363A2.213,2.213,0,0,0,81.311,88.8L69.525,66.914a2.214,2.214,0,0,0-3.9,0L53.84,88.8a2.213,2.213,0,0,0,1.948,3.262Z" fill="none" stroke="#245b4e" stroke-linecap="round" stroke-linejoin="round" stroke-width="2"/>
      <path id="Trazado_3288" data-name="Trazado 3288" d="M250.256,189.8l.352,7.481.351-7.478a.352.352,0,0,0-.355-.368h0a.352.352,0,0,0-.348.365Z" transform="translate(-183.033 -114.644)" fill="none" stroke="#245b4e" stroke-linecap="round" stroke-linejoin="round" stroke-width="2"/>
      <path id="Trazado_3289" data-name="Trazado 3289" d="M237.226,359.7a1.226,1.226,0,1,1,1.226-1.226A1.226,1.226,0,0,1,237.226,359.7Z" transform="translate(-169.651 -270.641)" stroke="#245b4e" stroke-width="2"/>
    </g>
  </g>
</svg>
